<?xml version="1.0" standalone="no"?>
<!DOCTYPE svg PUBLIC "-//W3C//DTD SVG 20010904//EN"
 "http://www.w3.org/TR/2001/REC-SVG-20010904/DTD/svg10.dtd">
<svg version="1.0" xmlns="http://www.w3.org/2000/svg"
 width="3000.000000pt" height="3000.000000pt" viewBox="0 0 3000.000000 3000.000000"
 preserveAspectRatio="xMidYMid meet">
<metadata>
Created by potrace 1.11, written by Peter Selinger 2001-2013
</metadata>
<g transform="translate(0.000000,3000.000000) scale(0.100000,-0.100000)"
fill="#000000" stroke="none">
<path d="M8377 23375 c-3640 -3638 -6622 -6615 -6627 -6615 -6 0 -10 -5 -10
-10 0 -9 -63 -73 -160 -165 -14 -13 -144 -143 -289 -289 -145 -146 -268 -266
-273 -266 -4 0 -8 -4 -8 -9 0 -7 -186 -197 -243 -247 -6 -6 -23 -25 -37 -42
-14 -17 -31 -31 -37 -32 -7 0 -13 -4 -13 -8 0 -4 -57 -64 -126 -133 -69 -68
-138 -137 -152 -153 -43 -47 -86 -86 -94 -86 -5 0 -8 -4 -8 -9 0 -4 -65 -73
-145 -152 -80 -79 -145 -148 -145 -153 0 -5 3374 -3382 7497 -7503 l7497
-7494 3705 3706 c2038 2038 3708 3705 3712 3705 4 0 9 4 11 10 5 14 340 350
349 350 5 0 9 4 9 8 0 9 446 456 460 460 5 2 10 10 10 17 0 7 4 15 9 17 6 2
1523 1514 3371 3362 l3362 3359 -339 338 c-186 187 -336 339 -333 339 3 0 -2
4 -10 10 -13 8 -764 755 -824 819 -13 14 -128 129 -255 254 -127 126 -231 233
-231 238 0 5 -4 9 -9 9 -6 0 -1589 1578 -3519 3508 -1930 1929 -3518 3515
-3530 3526 l-22 19 -966 -967 -967 -966 3562 -3560 c1958 -1959 3561 -3563
3561 -3567 0 -8 -11110 -11113 -11118 -11113 -4 0 -1358 1351 -3010 3003
-1651 1651 -4152 4151 -5557 5556 -1405 1405 -2553 2557 -2550 2560 19 22
4211 4211 4215 4213 3 0 181 180 395 398 215 218 395 398 402 398 6 1 13 6 15
12 4 11 -142 -134 4446 4453 l3579 3577 -965 965 c-531 531 -968 965 -971 965
-3 0 -2984 -2977 -6624 -6615z"/>
</g>
</svg>
