<svg xmlns="http://www.w3.org/2000/svg" width="109.796" height="64.772" viewBox="0 0 109.796 64.772"><defs><style>.a{fill:#eb333f;fill-rule:evenodd;}</style></defs><path class="a" d="M87.84,13.174Q84.992,23.755,82.2,34.35c-.926,3.533-1.835,7.068-2.9,10.564A45.663,45.663,0,0,1,75.14,55.02a17.87,17.87,0,0,1-7.9,7.342,19.863,19.863,0,0,1-4.293,1.4,42.033,42.033,0,0,1-6.382.753c-5.316.3-16.594.255-21.909.255l3.258-12.076c2.466,0,4.932.009,7.4-.06a37.219,37.219,0,0,0,7.342-.748,10.49,10.49,0,0,0,6.2-3.737,23.594,23.594,0,0,0,3.435-6.513c1.555-4.087,3.146-9.939,4.268-14.148,1.269-4.764,2.489-9.54,3.718-14.315Zm21.956,0L100.317,48.3H82.753l9.478-35.129H109.8ZM51.873,0H69.438Q66.677,10.286,63.9,20.567c-1.3,4.773-2.585,9.548-3.993,14.291-.614,2.067-1.227,4.129-2.032,6.136a10.723,10.723,0,0,1-2.707,4.252A8.731,8.731,0,0,1,51.81,47.1a22.372,22.372,0,0,1-4.966.84c-2.424.2-4.849.249-7.277.289-5.585.09-15.726.077-21.311.053-2.007-.009-4.013-.021-6.02-.058-1.455-.026-2.908-.062-4.361-.153a24.332,24.332,0,0,1-2.891-.319A8.469,8.469,0,0,1,3.1,47.209,5.078,5.078,0,0,1,0,42.438a15.33,15.33,0,0,1,.423-3.572c.348-1.676.781-3.329,1.21-4.984.819-3.162,2.318-9,3.486-12.067.915-2.407,2.124-4.8,4.421-6.325a11.192,11.192,0,0,1,4.121-1.6A26.978,26.978,0,0,1,17,13.463c1.873-.139,3.748-.183,5.625-.216,2.667-.047,5.334-.057,8-.065l6.653-.009h6.653l-2.37,8.782c-3.954,0-7.908-.011-11.862.012-1.154.007-2.307,0-3.46.074a4.429,4.429,0,0,0-1.205.192,1.675,1.675,0,0,0-1.007.978,13.441,13.441,0,0,0-.741,2.138c-.326,1.108-.627,2.223-.929,3.338-.465,1.718-.93,3.435-1.372,5.16-.163.638-.323,1.277-.461,1.921a11.691,11.691,0,0,0-.227,1.362,2.465,2.465,0,0,0,.243,1.577,1.73,1.73,0,0,0,1.324.656,14.421,14.421,0,0,0,1.663.115c.91.028,1.821.032,2.731.036q3.736.018,7.471,0c1.148-.007,2.294-.015,3.441-.061a11.861,11.861,0,0,0,2.347-.247,2.5,2.5,0,0,0,1.453-.851,4.147,4.147,0,0,0,.609-1.075,28.007,28.007,0,0,0,.975-2.933c1.123-3.792,2.134-7.614,3.167-11.43L48.8,11.458,51.873,0h0Z" transform="translate(0)"/></svg>