<?xml version="1.0" standalone="no"?>
<!DOCTYPE svg PUBLIC "-//W3C//DTD SVG 20010904//EN"
 "http://www.w3.org/TR/2001/REC-SVG-20010904/DTD/svg10.dtd">
<svg version="1.0" xmlns="http://www.w3.org/2000/svg"
 width="3537.000000pt" height="3537.000000pt" viewBox="0 0 3537.000000 3537.000000"
 preserveAspectRatio="xMidYMid meet">
<metadata>
Created by potrace 1.11, written by Peter Selinger 2001-2013
</metadata>
<g transform="translate(0.000000,3537.000000) scale(0.100000,-0.100000)"
fill="#000000" stroke="none">
<path d="M8840 26533 l-8842 -8841 8836 -8836 c4860 -4860 8842 -8836 8849
-8836 6 0 3988 3976 8847 8835 l8835 8835 -4422 4422 -4423 4423 -705 -705
c-388 -388 -705 -709 -705 -715 0 -5 1668 -1678 3707 -3717 l3708 -3708 -7423
-7422 -7422 -7423 -7422 7422 -7422 7422 7422 7423 7423 7422 1944 -1944
c1069 -1069 1946 -1942 1949 -1940 75 69 1406 1408 1406 1415 0 5 -1192 1202
-2650 2660 l-2649 2649 -8841 -8841z"/>
<path d="M12723 22644 c-2719 -2719 -4943 -4947 -4943 -4951 0 -5 2228 -2236
4952 -4960 l4951 -4951 4942 4941 c2717 2718 4945 4948 4949 4956 6 10 -668
690 -2465 2487 -1361 1361 -2477 2474 -2482 2474 -13 0 -1407 -1399 -1407
-1412 0 -7 793 -806 1761 -1774 l1762 -1762 -3533 -3532 -3532 -3533 -3530
3530 -3530 3530 4243 4242 4242 4243 -709 709 c-390 390 -713 709 -719 708 -5
0 -2234 -2226 -4952 -4945z"/>
</g>
</svg>
