<svg xmlns="http://www.w3.org/2000/svg" width="40" height="40" viewBox="0 0 40 40">
  <g id="Group_134" data-name="Group 134" transform="translate(-319 -3733)">
    <circle id="Ellipse_313" data-name="Ellipse 313" cx="20" cy="20" r="20" transform="translate(319 3733)" fill="#fff" opacity="0.23"/>
    <g id="svg52" transform="translate(333 3745.028)">
      <path id="Path_705" data-name="Path 705" d="M0,0H4.987V8.128H0Z" transform="translate(3.176 3.393)" fill="#1f1f1f"/>
      <path id="Path_704" data-name="Path 704" d="M293.669,387.1a.473.473,0,0,1-.378-.189l-4.073-5.745-.148-.208a5.67,5.67,0,1,1,9.2,0l-.2.274-4.022,5.67a.473.473,0,0,1-.378.2Zm0-11.339a1.89,1.89,0,1,0,1.89,1.89A1.89,1.89,0,0,0,293.669,375.76Z" transform="translate(-288 -372)" fill="#fff" fill-rule="evenodd"/>
    </g>
  </g>
</svg>
