<svg xmlns="http://www.w3.org/2000/svg" width="194.194" height="63.126" viewBox="0 0 194.194 63.126">
  <g id="Group_91" data-name="Group 91" transform="translate(-470 -81)">
    <path id="Path_708" data-name="Path 708" d="M7.74,0,.15-21.33H5.07L9.81-6.42l4.77-14.91H19.5L11.91,0ZM26.37,0H21.78V-21.33h4.59ZM45.6-18.12,35.01-3.75H45.96V0H29.4V-3.15L39.93-17.58H30.24v-3.75H45.6ZM53.76,0H49.17V-21.33h4.59Zm1.89-21.33h5.19l5.04,10.29H66l4.98-10.29h5.16L68.22-6.81V0H63.63V-6.87ZM84-16.74,81.84-9.72h4.38l-2.16-7.02ZM89.52,0,87.48-6h-6.9L78.54,0H73.89l7.65-21.33h4.98L94.17,0Z" transform="translate(568 104)" fill="#fff"/>
    <path id="Path_709" data-name="Path 709" d="M5.138-9.954,8.792,0H7.756L6.58-3.22H2.436L1.274,0H.238L3.906-9.954ZM4.522-8.932H4.494L2.744-4.1H6.272Zm6.72-.154v4.312h2.786a2.2,2.2,0,0,0,1.512-.434,2.361,2.361,0,0,0,.49-1.75,2.218,2.218,0,0,0-.476-1.708,2.31,2.31,0,0,0-1.526-.42Zm2.9,5.152L16.926,0H15.75L13.076-3.934H11.242V0h-.98V-9.954h3.71a4.761,4.761,0,0,1,1.862.294q1.176.518,1.176,2.7a3.06,3.06,0,0,1-.784,2.464A3.49,3.49,0,0,1,14.14-3.934Zm4.522.5V-6.3q0-.476.014-.644a3.159,3.159,0,0,1,.336-1.428,2.758,2.758,0,0,1,1.218-1.2,6.052,6.052,0,0,1,2.646-.5,16.066,16.066,0,0,1,2.506.238v.882a16.419,16.419,0,0,0-2.506-.252,3.427,3.427,0,0,0-2.6.77,2.068,2.068,0,0,0-.546,1.036A7.084,7.084,0,0,0,19.642-6.3v2.646q0,.406.014.56a2.58,2.58,0,0,0,.252,1.106q.714,1.246,2.968,1.246a14.474,14.474,0,0,0,2.506-.252v.868a13.647,13.647,0,0,1-2.506.252,4.644,4.644,0,0,1-3.3-.966,2.525,2.525,0,0,1-.756-1.274A5.523,5.523,0,0,1,18.662-3.43ZM34.37,0h-.98V-4.676H28.238V0h-.98V-9.954h.98v4.41H33.39v-4.41h.98Zm3.416,0h-.98V-9.954h.98ZM43.4,0h-.98V-9.086H39.27v-.868h7.252v.868H43.4ZM54.026-.868V0H48.02V-9.954h5.866v.868H49v3.724h4.354v.868H49V-.868ZM55.552-3.43V-6.3q0-.476.014-.644A3.159,3.159,0,0,1,55.9-8.372a2.758,2.758,0,0,1,1.218-1.2,6.052,6.052,0,0,1,2.646-.5,16.066,16.066,0,0,1,2.506.238v.882a16.419,16.419,0,0,0-2.506-.252,3.427,3.427,0,0,0-2.6.77,2.068,2.068,0,0,0-.546,1.036A7.085,7.085,0,0,0,56.532-6.3v2.646q0,.406.014.56A2.58,2.58,0,0,0,56.8-1.988q.714,1.246,2.968,1.246a14.474,14.474,0,0,0,2.506-.252v.868a13.647,13.647,0,0,1-2.506.252,4.644,4.644,0,0,1-3.3-.966,2.525,2.525,0,0,1-.756-1.274A5.523,5.523,0,0,1,55.552-3.43ZM67.326,0h-.98V-9.086H63.2v-.868h7.252v.868H67.326ZM78.148-9.954h.98v6.328A4.158,4.158,0,0,1,78.33-.7a3.958,3.958,0,0,1-2.884.826,3.611,3.611,0,0,1-2.8-.868,4.412,4.412,0,0,1-.756-2.884V-9.954h.98v6.328A3.39,3.39,0,0,0,73.444-1.4a2.748,2.748,0,0,0,2.128.658,2.561,2.561,0,0,0,2-.644,3.417,3.417,0,0,0,.574-2.24Zm4.34.868v4.312h2.786a2.2,2.2,0,0,0,1.512-.434,2.361,2.361,0,0,0,.49-1.75A2.218,2.218,0,0,0,86.8-8.666a2.31,2.31,0,0,0-1.526-.42Zm2.9,5.152L88.172,0H87L84.322-3.934H82.488V0h-.98V-9.954h3.71a4.761,4.761,0,0,1,1.862.294q1.176.518,1.176,2.7a3.06,3.06,0,0,1-.784,2.464A3.49,3.49,0,0,1,85.386-3.934ZM96.194-.868V0H90.188V-9.954h5.866v.868H91.168v3.724h4.354v.868H91.168V-.868ZM5.138,8.046,8.792,18H7.756L6.58,14.78H2.436L1.274,18H.238L3.906,8.046ZM4.522,9.068H4.494L2.744,13.9H6.272Zm5.74-1.022h1.246L16.38,16.5h.028V8.046h.98V18H16.24L11.27,9.446h-.028V18h-.98ZM23.38,18H19.824V8.046H23.38a4.73,4.73,0,0,1,3.234.924,3.884,3.884,0,0,1,1.022,3.01v2.086a3.853,3.853,0,0,1-1.036,3.01A4.738,4.738,0,0,1,23.38,18ZM20.8,8.914v8.218H23.38a3.625,3.625,0,0,0,2.5-.714,3.069,3.069,0,0,0,.777-2.352V11.98a3.066,3.066,0,0,0-.777-2.359,3.65,3.65,0,0,0-2.5-.707ZM36.652,18H33.1V8.046h3.556a4.73,4.73,0,0,1,3.234.924,3.884,3.884,0,0,1,1.022,3.01v2.086a3.853,3.853,0,0,1-1.036,3.01A4.738,4.738,0,0,1,36.652,18ZM34.076,8.914v8.218h2.576a3.625,3.625,0,0,0,2.5-.714,3.069,3.069,0,0,0,.777-2.352V11.98a3.066,3.066,0,0,0-.777-2.359,3.65,3.65,0,0,0-2.5-.707Zm14.952,8.218V18H43.022V8.046h5.866v.868H44v3.724h4.354v.868H44v3.626Zm7.448-8.946v.9a8.663,8.663,0,0,0-2.338-.294,3.936,3.936,0,0,0-1.946.357,1.39,1.39,0,0,0-.588,1.3,1.268,1.268,0,0,0,.35.938,5.468,5.468,0,0,0,1.246.812l1.89.98a3.794,3.794,0,0,1,1.316,1.036,2.672,2.672,0,0,1,.406,1.568,1.938,1.938,0,0,1-.882,1.862,5.886,5.886,0,0,1-2.73.49,12.094,12.094,0,0,1-2.786-.364v-.9a11.163,11.163,0,0,0,2.786.392,4.63,4.63,0,0,0,2.016-.322,1.194,1.194,0,0,0,.616-1.162,1.8,1.8,0,0,0-.266-1.05A2.609,2.609,0,0,0,54.642,14l-1.96-1.008a5.432,5.432,0,0,1-1.6-1.106,2.135,2.135,0,0,1-.462-1.47,2.113,2.113,0,0,1,.84-1.974,5.224,5.224,0,0,1,2.674-.518A9.744,9.744,0,0,1,56.476,8.186ZM59.682,18H58.7V8.046h.98Zm9.842-4.788v4a7.279,7.279,0,0,1-3.542.91,4.622,4.622,0,0,1-3.346-1.078,2.84,2.84,0,0,1-.7-1.358,7.181,7.181,0,0,1-.112-1.358V11.714q0-.476.014-.658a3.131,3.131,0,0,1,.35-1.414,2.654,2.654,0,0,1,1.218-1.218,6.3,6.3,0,0,1,2.674-.5,16.717,16.717,0,0,1,2.758.252v.854a17.306,17.306,0,0,0-2.758-.238,3.461,3.461,0,0,0-2.632.784,2.1,2.1,0,0,0-.56,1.036,7.085,7.085,0,0,0-.084,1.106v2.618q0,.406.014.56A2.58,2.58,0,0,0,63.07,16a2.072,2.072,0,0,0,.91.882,4.841,4.841,0,0,0,2,.378,5.7,5.7,0,0,0,2.6-.56V14.066H66.43v-.854Zm2.03-5.166H72.8L77.672,16.5H77.7V8.046h.98V18H77.532l-4.97-8.554h-.028V18h-.98Z" transform="translate(568 126)" fill="#fff"/>
    <g id="logo" transform="translate(396 142)">
      <path id="Path_1" data-name="Path 1" d="M44.853,36.313l9.41,16.607H17.135L41.412,10.08,35.7,0,0,63H71.4L50.55,26.256Z" transform="translate(74 -61)" fill="#fff"/>
    </g>
  </g>
</svg>
