<svg width="102" height="30" viewBox="0 0 102 30" fill="none" xmlns="http://www.w3.org/2000/svg">
<g clip-path="url(#clip0_562_21)">
<path d="M26.5508 0H31.1922V29.0088H26.5508V0ZM47.4371 19.755C47.4371 24.1945 43.7043 24.5484 42.5938 24.5484C39.8194 24.5484 39.3146 21.9515 39.3146 20.3851V9.28282H34.6732V20.3619C34.6732 23.1119 35.5365 25.3815 37.0496 26.8946C38.3864 28.2325 40.3891 28.9635 42.559 28.9635C44.0976 28.9635 46.2767 28.4843 47.4371 27.4249V29.0088H52.0785V9.28282H47.4371V19.755ZM61.3613 2.3207H56.7199V9.28282H53.2389V13.9242H56.7199V29.0088H61.3613V13.9242H64.8424V9.28282H61.3613V2.3207ZM79.4593 23.1107C78.4486 24.0193 77.1142 24.5229 75.6499 24.5229C72.4218 24.5229 70.0512 22.1523 70.0512 18.8975C70.0512 15.6427 72.3464 13.3719 75.6499 13.3719C77.0887 13.3719 78.4486 13.8511 79.4848 14.7597L80.1892 15.3654L83.3186 12.2371L82.5354 11.5304C80.6939 9.86763 78.2491 8.93471 75.6487 8.93471C69.847 8.93471 65.6337 13.1213 65.6337 18.8731C65.6337 24.6006 69.9479 28.9369 75.6487 28.9369C78.2978 28.9369 80.7682 28.0039 82.5865 26.3145L83.343 25.6078L80.1648 22.4818L79.4593 23.1107ZM99.885 11.0025C98.5482 9.66573 96.9818 8.93471 94.8119 8.93471C93.2733 8.93471 91.5304 9.41394 90.3701 10.4722V0H85.7287V29.0088H90.3701V18.1421C90.3701 13.7026 93.5239 13.3498 94.6344 13.3498C97.4088 13.3498 97.3322 15.9479 97.3322 17.512V29.0088H101.974V17.5364C101.974 14.7864 101.399 12.5167 99.885 11.0025Z" fill="white"/>
<path d="M75.4964 15.5928C76.3864 15.5928 77.2399 15.9463 77.8692 16.5756C78.4986 17.205 78.8521 18.0585 78.8521 18.9485C78.8521 19.8385 78.4986 20.692 77.8692 21.3214C77.2399 21.9507 76.3864 22.3042 75.4964 22.3042C74.6064 22.3042 73.7528 21.9507 73.1235 21.3214C72.4942 20.692 72.1406 19.8385 72.1406 18.9485C72.1406 18.0585 72.4942 17.205 73.1235 16.5756C73.7528 15.9463 74.6064 15.5928 75.4964 15.5928Z" fill="#FF3D2E"/>
<path d="M20.0523 21.723C18.2874 23.5389 15.8901 24.5229 13.3675 24.5229C8.19695 24.5229 4.43741 20.4617 4.43741 14.8873C4.43741 9.28747 8.19695 5.22623 13.3675 5.22623C15.8657 5.22623 18.2363 6.20905 20.0279 8.00064L20.7334 8.70729L23.8362 5.60451L23.155 4.89785C20.5825 2.24877 17.1015 0.812256 13.3675 0.812256C5.74977 0.812256 0.0234375 6.86581 0.0234375 14.9117C0.0234375 22.9332 5.7753 28.9624 13.3675 28.9624C17.127 28.9624 20.6081 27.5003 23.1806 24.8513L23.8617 24.1446L20.7844 20.9919L20.0523 21.723Z" fill="white"/>
</g>
<defs>
<clipPath id="clip0_562_21">
<rect width="102" height="29.0088" fill="white"/>
</clipPath>
</defs>
</svg>
