<svg width="1122" height="90" viewBox="0 0 1122 90" fill="none" xmlns="http://www.w3.org/2000/svg">
<path d="M23.9599 21.1412C27.9581 21.1412 31.4253 21.9221 34.3614 23.4839C37.3601 24.9833 39.6715 27.2947 41.2958 30.4183C42.9825 33.4794 43.8259 37.2902 43.8259 41.8506V70.4314H39.1405V42.2255C39.1405 36.7279 37.7349 32.5423 34.9237 29.6686C32.1749 26.7949 28.3017 25.3581 23.3039 25.3581C19.4932 25.3581 16.1822 26.139 13.3709 27.7008C10.5597 29.2626 8.40443 31.4491 6.90511 34.2603C5.46826 37.0715 4.74983 40.445 4.74983 44.3807V70.4314H0.0644531V0.900391H4.74983V35.1037L3.90647 33.6044C5.40579 29.7311 7.87342 26.7012 11.3094 24.5147C14.7453 22.2657 18.9622 21.1412 23.9599 21.1412Z" fill="white"/>
<path d="M61.7102 70.4314V21.5161H66.3955V70.4314H61.7102ZM64.0528 9.6152C62.9908 9.6152 62.085 9.24037 61.3353 8.49071C60.5857 7.74105 60.2108 6.86644 60.2108 5.8669C60.2108 4.80488 60.5857 3.89903 61.3353 3.14937C62.085 2.39971 62.9908 2.02488 64.0528 2.02488C65.1773 2.02488 66.0832 2.39971 66.7704 3.14937C67.52 3.83656 67.8949 4.71117 67.8949 5.77319C67.8949 6.83521 67.52 7.74105 66.7704 8.49071C66.0832 9.24037 65.1773 9.6152 64.0528 9.6152Z" fill="white"/>
<path d="M122.971 89.0793C116.661 89.0793 110.851 88.0172 105.541 85.8932C100.294 83.8316 95.7331 80.8955 91.8599 77.0847C88.0491 73.3364 85.1129 68.9009 83.0513 63.7782C80.9898 58.5931 79.959 52.8769 79.959 46.6297C79.959 40.3825 80.9898 34.6664 83.0513 29.4812C85.1754 24.2961 88.174 19.8293 92.0473 16.081C95.9205 12.3327 100.512 9.45902 105.822 7.45992C111.132 5.39836 116.973 4.36757 123.346 4.36757C129.655 4.36757 135.434 5.36712 140.682 7.36622C145.929 9.36531 150.49 12.2078 154.363 15.8936C158.236 19.517 161.203 23.89 163.265 29.0127C165.389 34.0729 166.451 39.6641 166.451 45.7863C166.451 51.0964 165.858 55.6256 164.671 59.374C163.484 63.0598 161.797 65.9023 159.61 67.9013C157.424 69.838 154.894 70.8063 152.02 70.8063C149.084 70.8063 146.71 69.9317 144.898 68.1825C143.087 66.4333 142.181 63.9656 142.181 60.7796V52.5333L143.024 46.2549L142.087 38.1023V22.5469H146.398V59.5614C146.398 62.2476 146.991 64.153 148.178 65.2775C149.365 66.402 150.833 66.9643 152.582 66.9643C154.644 66.9643 156.424 66.1521 157.924 64.5279C159.486 62.8411 160.672 60.436 161.485 57.3124C162.359 54.1888 162.797 50.378 162.797 45.88C162.797 40.1951 161.828 35.0412 159.892 30.4183C158.017 25.7329 155.3 21.7035 151.739 18.33C148.241 14.9565 144.086 12.3952 139.276 10.646C134.466 8.8343 129.155 7.92846 123.346 7.92846C117.536 7.92846 112.194 8.86554 107.322 10.7397C102.449 12.6138 98.2632 15.2689 94.7648 18.7048C91.2664 22.1408 88.5489 26.2327 86.6122 30.9805C84.7381 35.6659 83.801 40.8823 83.801 46.6297C83.801 52.3146 84.7381 57.531 86.6122 62.2789C88.4864 67.0267 91.1414 71.1186 94.5774 74.5546C98.0758 78.053 102.23 80.7393 107.04 82.6134C111.851 84.4876 117.161 85.4247 122.971 85.4247C125.782 85.4247 128.781 85.0811 131.967 84.3939C135.215 83.7692 138.183 82.7384 140.869 81.3015L142.087 84.7687C139.338 86.2056 136.215 87.2676 132.716 87.9548C129.218 88.7044 125.969 89.0793 122.971 89.0793ZM122.221 70.8063C117.786 70.8063 113.787 69.7755 110.227 67.7139C106.728 65.5899 103.948 62.685 101.887 58.9991C99.8875 55.3133 98.8879 51.1277 98.8879 46.4423C98.8879 41.6944 99.8875 37.5088 101.887 33.8855C103.948 30.2621 106.728 27.4196 110.227 25.3581C113.787 23.234 117.786 22.172 122.221 22.172C126.594 22.172 130.467 23.1716 133.841 25.1707C137.277 27.1698 139.963 29.981 141.9 33.6044C143.899 37.2277 144.898 41.507 144.898 46.4423C144.898 51.3151 143.899 55.5944 141.9 59.2802C139.963 62.9661 137.308 65.8085 133.935 67.8076C130.561 69.8067 126.657 70.8063 122.221 70.8063ZM122.69 66.8706C126.438 66.8706 129.78 66.0272 132.716 64.3405C135.653 62.5912 137.964 60.1861 139.651 57.125C141.337 54.0639 142.181 50.503 142.181 46.4423C142.181 42.3192 141.337 38.7583 139.651 35.7596C137.964 32.6985 135.653 30.3246 132.716 28.6379C129.78 26.9511 126.438 26.1077 122.69 26.1077C119.004 26.1077 115.693 26.9511 112.757 28.6379C109.82 30.3246 107.509 32.6985 105.822 35.7596C104.136 38.8207 103.292 42.3816 103.292 46.4423C103.292 50.4405 104.136 54.0014 105.822 57.125C107.509 60.1861 109.82 62.5912 112.757 64.3405C115.693 66.0272 119.004 66.8706 122.69 66.8706Z" fill="white"/>
<path d="M204.047 21.1412C208.045 21.1412 211.512 21.9221 214.448 23.4839C217.447 24.9833 219.759 27.2947 221.383 30.4183C223.07 33.4794 223.913 37.2902 223.913 41.8506V70.4314H219.228V42.2255C219.228 36.7279 217.822 32.5423 215.011 29.6686C212.262 26.7949 208.389 25.3581 203.391 25.3581C199.58 25.3581 196.269 26.139 193.458 27.7008C190.647 29.2626 188.491 31.4491 186.992 34.2603C185.555 37.0715 184.837 40.445 184.837 44.3807V70.4314H180.151V0.900391H184.837V35.1037L183.993 33.6044C185.493 29.7311 187.96 26.7012 191.396 24.5147C194.832 22.2657 199.049 21.1412 204.047 21.1412Z" fill="white"/>
<path d="M272.627 70.4314V59.2802L272.44 57.5935V39.2268C272.44 34.6664 271.19 31.1992 268.691 28.8253C266.255 26.4513 262.663 25.2644 257.915 25.2644C254.541 25.2644 251.387 25.8579 248.45 27.0448C245.577 28.1693 243.109 29.6374 241.048 31.4491L238.705 28.0756C241.141 25.8891 244.077 24.2024 247.513 23.0154C250.949 21.766 254.541 21.1412 258.29 21.1412C264.349 21.1412 269.004 22.6718 272.252 25.7329C275.501 28.794 277.125 33.3545 277.125 39.4142V70.4314H272.627ZM255.01 70.8063C251.387 70.8063 248.232 70.244 245.545 69.1195C242.922 67.9326 240.891 66.2771 239.454 64.153C238.08 62.029 237.393 59.5926 237.393 56.8438C237.393 54.345 237.955 52.096 239.08 50.0969C240.267 48.0353 242.203 46.3798 244.89 45.1304C247.576 43.8185 251.168 43.1625 255.666 43.1625H273.658V46.8171H255.76C250.699 46.8171 247.139 47.7542 245.077 49.6284C243.078 51.5025 242.078 53.8452 242.078 56.6564C242.078 59.78 243.265 62.2789 245.639 64.153C248.013 66.0272 251.355 66.9643 255.666 66.9643C259.789 66.9643 263.256 66.0272 266.067 64.153C268.941 62.2789 271.065 59.5614 272.44 56.0005L273.751 59.1865C272.44 62.7474 270.191 65.5899 267.005 67.7139C263.881 69.7755 259.883 70.8063 255.01 70.8063Z" fill="white"/>
<path d="M318.919 21.1412C322.917 21.1412 326.385 21.9221 329.321 23.4839C332.319 24.9833 334.631 27.2947 336.255 30.4183C337.942 33.4794 338.785 37.2902 338.785 41.8506V70.4314H334.1V42.2255C334.1 36.7279 332.694 32.5423 329.883 29.6686C327.134 26.7949 323.261 25.3581 318.263 25.3581C314.453 25.3581 311.142 26.139 308.33 27.7008C305.519 29.2626 303.364 31.4491 301.864 34.2603C300.428 37.0715 299.709 40.445 299.709 44.3807V70.4314H295.024V21.5161H299.522V35.1037L298.866 33.6044C300.365 29.7311 302.833 26.7012 306.269 24.5147C309.705 22.2657 313.922 21.1412 318.919 21.1412Z" fill="white"/>
<path d="M375.505 70.8063C370.944 70.8063 366.821 69.7755 363.135 67.7139C359.512 65.5899 356.638 62.6537 354.514 58.9054C352.39 55.1571 351.328 50.8466 351.328 45.9738C351.328 41.0385 352.39 36.7279 354.514 33.0421C356.638 29.2938 359.512 26.3889 363.135 24.3273C366.821 22.2033 370.944 21.1412 375.505 21.1412C379.815 21.1412 383.689 22.1408 387.125 24.1399C390.623 26.139 393.372 28.9814 395.371 32.6673C397.432 36.3531 398.463 40.7886 398.463 45.9738C398.463 51.034 397.464 55.4382 395.464 59.1865C393.465 62.9348 390.717 65.8085 387.218 67.8076C383.782 69.8067 379.878 70.8063 375.505 70.8063ZM375.786 66.5894C379.534 66.5894 382.876 65.7461 385.813 64.0593C388.811 62.3101 391.154 59.8737 392.841 56.7501C394.59 53.6265 395.464 50.0344 395.464 45.9738C395.464 41.8506 394.59 38.2585 392.841 35.1974C391.154 32.0738 388.811 29.6686 385.813 27.9819C382.876 26.2327 379.534 25.3581 375.786 25.3581C372.038 25.3581 368.664 26.2327 365.665 27.9819C362.729 29.6686 360.387 32.0738 358.637 35.1974C356.951 38.2585 356.107 41.8506 356.107 45.9738C356.107 50.0344 356.951 53.6265 358.637 56.7501C360.387 59.8737 362.729 62.3101 365.665 64.0593C368.664 65.7461 372.038 66.5894 375.786 66.5894ZM395.558 70.4314V54.4074L396.402 45.88L395.464 37.3527V0.900391H400.15V70.4314H395.558Z" fill="white"/>
<path d="M479.408 21.1412C483.344 21.1412 486.749 21.9221 489.622 23.4839C492.559 24.9833 494.839 27.2947 496.463 30.4183C498.087 33.4794 498.899 37.2902 498.899 41.8506V70.4314H494.214V42.2255C494.214 36.7279 492.871 32.5423 490.185 29.6686C487.498 26.7949 483.75 25.3581 478.94 25.3581C475.254 25.3581 472.068 26.139 469.382 27.7008C466.695 29.2626 464.634 31.4491 463.197 34.2603C461.76 37.0715 461.042 40.445 461.042 44.3807V70.4314H456.356V42.2255C456.356 36.7279 455.013 32.5423 452.327 29.6686C449.64 26.7949 445.892 25.3581 441.082 25.3581C437.396 25.3581 434.21 26.139 431.524 27.7008C428.837 29.2626 426.776 31.4491 425.339 34.2603C423.902 37.0715 423.184 40.445 423.184 44.3807V70.4314H418.498V21.5161H422.996V35.01L422.34 33.5106C423.777 29.6999 426.182 26.7012 429.556 24.5147C432.929 22.2657 436.99 21.1412 441.738 21.1412C446.611 21.1412 450.702 22.3907 454.013 24.8895C457.387 27.3259 459.511 30.9805 460.386 35.8533L458.793 35.1974C460.104 31.0118 462.572 27.6383 466.195 25.077C469.819 22.4531 474.223 21.1412 479.408 21.1412Z" fill="white"/>
<path d="M547.67 70.4314V59.2802L547.482 57.5935V39.2268C547.482 34.6664 546.233 31.1992 543.734 28.8253C541.298 26.4513 537.706 25.2644 532.958 25.2644C529.584 25.2644 526.429 25.8579 523.493 27.0448C520.62 28.1693 518.152 29.6374 516.09 31.4491L513.748 28.0756C516.184 25.8891 519.12 24.2024 522.556 23.0154C525.992 21.766 529.584 21.1412 533.333 21.1412C539.392 21.1412 544.046 22.6718 547.295 25.7329C550.544 28.794 552.168 33.3545 552.168 39.4142V70.4314H547.67ZM530.053 70.8063C526.429 70.8063 523.275 70.244 520.588 69.1195C517.965 67.9326 515.934 66.2771 514.497 64.153C513.123 62.029 512.436 59.5926 512.436 56.8438C512.436 54.345 512.998 52.096 514.122 50.0969C515.309 48.0353 517.246 46.3798 519.932 45.1304C522.619 43.8185 526.211 43.1625 530.709 43.1625H548.701V46.8171H530.802C525.742 46.8171 522.181 47.7542 520.12 49.6284C518.121 51.5025 517.121 53.8452 517.121 56.6564C517.121 59.78 518.308 62.2789 520.682 64.153C523.056 66.0272 526.398 66.9643 530.709 66.9643C534.832 66.9643 538.299 66.0272 541.11 64.153C543.984 62.2789 546.108 59.5614 547.482 56.0005L548.794 59.1865C547.482 62.7474 545.233 65.5899 542.047 67.7139C538.924 69.7755 534.926 70.8063 530.053 70.8063Z" fill="white"/>
<path d="M588.902 70.8063C584.341 70.8063 580.218 69.7755 576.533 67.7139C572.909 65.5899 570.035 62.6537 567.911 58.9054C565.787 55.1571 564.725 50.8466 564.725 45.9738C564.725 41.0385 565.787 36.7279 567.911 33.0421C570.035 29.2938 572.909 26.3889 576.533 24.3273C580.218 22.2033 584.341 21.1412 588.902 21.1412C593.212 21.1412 597.086 22.1408 600.522 24.1399C604.02 26.139 606.769 28.9814 608.768 32.6673C610.829 36.3531 611.86 40.7886 611.86 45.9738C611.86 51.034 610.861 55.4382 608.862 59.1865C606.863 62.9348 604.114 65.8085 600.615 67.8076C597.179 69.8067 593.275 70.8063 588.902 70.8063ZM589.183 66.5894C592.931 66.5894 596.274 65.7461 599.21 64.0593C602.208 62.3101 604.551 59.8737 606.238 56.7501C607.987 53.6265 608.862 50.0344 608.862 45.9738C608.862 41.8506 607.987 38.2585 606.238 35.1974C604.551 32.0738 602.208 29.6686 599.21 27.9819C596.274 26.2327 592.931 25.3581 589.183 25.3581C585.435 25.3581 582.061 26.2327 579.063 27.9819C576.126 29.6686 573.784 32.0738 572.035 35.1974C570.348 38.2585 569.504 41.8506 569.504 45.9738C569.504 50.0344 570.348 53.6265 572.035 56.7501C573.784 59.8737 576.126 62.3101 579.063 64.0593C582.061 65.7461 585.435 66.5894 589.183 66.5894ZM608.955 70.4314V54.4074L609.799 45.88L608.862 37.3527V0.900391H613.547V70.4314H608.955Z" fill="white"/>
<path d="M651.761 70.8063C646.826 70.8063 642.453 69.7443 638.642 67.6202C634.894 65.4962 631.927 62.56 629.74 58.8117C627.616 55.0634 626.554 50.7841 626.554 45.9738C626.554 41.101 627.554 36.8216 629.553 33.1358C631.614 29.3875 634.426 26.4513 637.986 24.3273C641.547 22.2033 645.545 21.1412 649.981 21.1412C654.416 21.1412 658.383 22.172 661.882 24.2336C665.443 26.2952 668.223 29.2001 670.222 32.9484C672.283 36.6342 673.314 40.9135 673.314 45.7863C673.314 45.9738 673.283 46.1924 673.22 46.4423C673.22 46.6297 673.22 46.8484 673.22 47.0983H630.021V43.4437H670.69L668.816 45.2241C668.879 41.4133 668.067 38.0086 666.38 35.01C664.756 31.9489 662.538 29.5749 659.727 27.8882C656.915 26.139 653.667 25.2644 649.981 25.2644C646.358 25.2644 643.109 26.139 640.235 27.8882C637.424 29.5749 635.206 31.9489 633.582 35.01C631.958 38.0086 631.146 41.4446 631.146 45.3178V46.1612C631.146 50.1594 632.02 53.7203 633.77 56.8438C635.581 59.905 638.049 62.3101 641.172 64.0593C644.296 65.7461 647.857 66.5894 651.855 66.5894C654.979 66.5894 657.884 66.0272 660.57 64.9027C663.319 63.7782 665.63 62.0602 667.504 59.7488L670.222 62.8411C668.098 65.4649 665.411 67.464 662.163 68.8384C658.977 70.1503 655.51 70.8063 651.761 70.8063Z" fill="white"/>
<path d="M685.841 70.8063C684.779 70.8063 683.842 70.4314 683.03 69.6818C682.28 68.8697 681.905 67.9013 681.905 66.7769C681.905 65.6524 682.28 64.7153 683.03 63.9656C683.842 63.216 684.779 62.8411 685.841 62.8411C686.903 62.8411 687.809 63.216 688.558 63.9656C689.371 64.7153 689.777 65.6524 689.777 66.7769C689.777 67.9013 689.371 68.8697 688.558 69.6818C687.809 70.4314 686.903 70.8063 685.841 70.8063Z" fill="white"/>
<path d="M721.599 70.8063C716.851 70.8063 712.603 69.7443 708.855 67.6202C705.169 65.4962 702.233 62.56 700.046 58.8117C697.922 55.0634 696.86 50.7841 696.86 45.9738C696.86 41.101 697.922 36.7904 700.046 33.0421C702.233 29.2938 705.169 26.3889 708.855 24.3273C712.603 22.2033 716.851 21.1412 721.599 21.1412C725.535 21.1412 729.096 21.8909 732.282 23.3902C735.53 24.8895 738.154 27.1385 740.153 30.1372L736.686 32.6673C734.937 30.1684 732.75 28.3255 730.127 27.1385C727.503 25.9516 724.66 25.3581 721.599 25.3581C717.788 25.3581 714.353 26.2327 711.291 27.9819C708.293 29.6686 705.919 32.0738 704.17 35.1974C702.483 38.2585 701.64 41.8506 701.64 45.9738C701.64 50.0969 702.483 53.7203 704.17 56.8438C705.919 59.905 708.293 62.3101 711.291 64.0593C714.353 65.7461 717.788 66.5894 721.599 66.5894C724.66 66.5894 727.503 65.996 730.127 64.809C732.75 63.622 734.937 61.7791 736.686 59.2802L740.153 61.8103C738.154 64.809 735.53 67.058 732.282 68.5573C729.096 70.0566 725.535 70.8063 721.599 70.8063Z" fill="white"/>
<path d="M771.067 70.8063C766.382 70.8063 762.196 69.7443 758.511 67.6202C754.887 65.4962 751.982 62.56 749.796 58.8117C747.672 55.0634 746.61 50.7841 746.61 45.9738C746.61 41.101 747.672 36.8216 749.796 33.1358C751.982 29.3875 754.887 26.4513 758.511 24.3273C762.196 22.2033 766.382 21.1412 771.067 21.1412C775.753 21.1412 779.938 22.2033 783.624 24.3273C787.31 26.4513 790.215 29.3875 792.339 33.1358C794.463 36.8216 795.525 41.101 795.525 45.9738C795.525 50.7841 794.463 55.0634 792.339 58.8117C790.215 62.56 787.31 65.4962 783.624 67.6202C779.938 69.7443 775.753 70.8063 771.067 70.8063ZM771.067 66.5894C774.816 66.5894 778.189 65.7461 781.188 64.0593C784.186 62.3101 786.529 59.8737 788.216 56.7501C789.903 53.6265 790.746 50.0344 790.746 45.9738C790.746 41.8506 789.903 38.2585 788.216 35.1974C786.529 32.0738 784.186 29.6686 781.188 27.9819C778.189 26.2327 774.816 25.3581 771.067 25.3581C767.319 25.3581 763.946 26.2327 760.947 27.9819C758.011 29.6686 755.668 32.0738 753.919 35.1974C752.232 38.2585 751.389 41.8506 751.389 45.9738C751.389 50.0344 752.232 53.6265 753.919 56.7501C755.668 59.8737 758.011 62.3101 760.947 64.0593C763.946 65.7461 767.319 66.5894 771.067 66.5894Z" fill="white"/>
<path d="M869.565 21.1412C873.501 21.1412 876.905 21.9221 879.779 23.4839C882.715 24.9833 884.996 27.2947 886.62 30.4183C888.244 33.4794 889.056 37.2902 889.056 41.8506V70.4314H884.371V42.2255C884.371 36.7279 883.028 32.5423 880.341 29.6686C877.655 26.7949 873.907 25.3581 869.096 25.3581C865.411 25.3581 862.225 26.139 859.538 27.7008C856.852 29.2626 854.79 31.4491 853.354 34.2603C851.917 37.0715 851.198 40.445 851.198 44.3807V70.4314H846.513V42.2255C846.513 36.7279 845.17 32.5423 842.483 29.6686C839.797 26.7949 836.049 25.3581 831.239 25.3581C827.553 25.3581 824.367 26.139 821.68 27.7008C818.994 29.2626 816.933 31.4491 815.496 34.2603C814.059 37.0715 813.34 40.445 813.34 44.3807V70.4314H808.655V21.5161H813.153V35.01L812.497 33.5106C813.934 29.6999 816.339 26.7012 819.713 24.5147C823.086 22.2657 827.147 21.1412 831.895 21.1412C836.767 21.1412 840.859 22.3907 844.17 24.8895C847.544 27.3259 849.668 30.9805 850.542 35.8533L848.949 35.1974C850.261 31.0118 852.729 27.6383 856.352 25.077C859.976 22.4531 864.38 21.1412 869.565 21.1412Z" fill="white"/>
<path d="M931.548 70.8063C927.238 70.8063 923.333 69.8067 919.835 67.8076C916.399 65.8085 913.65 62.9661 911.589 59.2802C909.589 55.5319 908.59 51.0964 908.59 45.9738C908.59 40.8511 909.589 36.4468 911.589 32.761C913.65 29.0127 916.399 26.139 919.835 24.1399C923.333 22.1408 927.238 21.1412 931.548 21.1412C936.171 21.1412 940.294 22.2033 943.918 24.3273C947.603 26.3889 950.477 29.2938 952.539 33.0421C954.663 36.7904 955.725 41.101 955.725 45.9738C955.725 50.8466 954.663 55.1571 952.539 58.9054C950.477 62.6537 947.603 65.5899 943.918 67.7139C940.294 69.7755 936.171 70.8063 931.548 70.8063ZM906.997 88.6107V21.5161H911.495V37.5401L910.745 46.0675L911.682 54.5949V88.6107H906.997ZM931.267 66.5894C935.015 66.5894 938.389 65.7461 941.388 64.0593C944.386 62.3101 946.729 59.8737 948.416 56.7501C950.165 53.6265 951.039 50.0344 951.039 45.9738C951.039 41.8506 950.165 38.2585 948.416 35.1974C946.729 32.0738 944.386 29.6686 941.388 27.9819C938.389 26.2327 935.015 25.3581 931.267 25.3581C927.519 25.3581 924.145 26.2327 921.147 27.9819C918.21 29.6686 915.868 32.0738 914.119 35.1974C912.432 38.2585 911.589 41.8506 911.589 45.9738C911.589 50.0344 912.432 53.6265 914.119 56.7501C915.868 59.8737 918.21 62.3101 921.147 64.0593C924.145 65.7461 927.519 66.5894 931.267 66.5894Z" fill="white"/>
<path d="M999.472 70.4314V59.2802L999.285 57.5935V39.2268C999.285 34.6664 998.035 31.1992 995.537 28.8253C993.1 26.4513 989.508 25.2644 984.76 25.2644C981.387 25.2644 978.232 25.8579 975.296 27.0448C972.422 28.1693 969.954 29.6374 967.893 31.4491L965.55 28.0756C967.987 25.8891 970.923 24.2024 974.359 23.0154C977.795 21.766 981.387 21.1412 985.135 21.1412C991.195 21.1412 995.849 22.6718 999.098 25.7329C1002.35 28.794 1003.97 33.3545 1003.97 39.4142V70.4314H999.472ZM981.855 70.8063C978.232 70.8063 975.077 70.244 972.391 69.1195C969.767 67.9326 967.737 66.2771 966.3 64.153C964.925 62.029 964.238 59.5926 964.238 56.8438C964.238 54.345 964.8 52.096 965.925 50.0969C967.112 48.0353 969.049 46.3798 971.735 45.1304C974.421 43.8185 978.013 43.1625 982.511 43.1625H1000.5V46.8171H982.605C977.545 46.8171 973.984 47.7542 971.922 49.6284C969.923 51.5025 968.924 53.8452 968.924 56.6564C968.924 59.78 970.111 62.2789 972.485 64.153C974.858 66.0272 978.201 66.9643 982.511 66.9643C986.634 66.9643 990.102 66.0272 992.913 64.153C995.787 62.2789 997.91 59.5614 999.285 56.0005L1000.6 59.1865C999.285 62.7474 997.036 65.5899 993.85 67.7139C990.726 69.7755 986.728 70.8063 981.855 70.8063Z" fill="white"/>
<path d="M1045.76 21.1412C1049.76 21.1412 1053.23 21.9221 1056.17 23.4839C1059.16 24.9833 1061.48 27.2947 1063.1 30.4183C1064.79 33.4794 1065.63 37.2902 1065.63 41.8506V70.4314H1060.95V42.2255C1060.95 36.7279 1059.54 32.5423 1056.73 29.6686C1053.98 26.7949 1050.11 25.3581 1045.11 25.3581C1041.3 25.3581 1037.99 26.139 1035.18 27.7008C1032.36 29.2626 1030.21 31.4491 1028.71 34.2603C1027.27 37.0715 1026.55 40.445 1026.55 44.3807V70.4314H1021.87V21.5161H1026.37V35.1037L1025.71 33.6044C1027.21 29.7311 1029.68 26.7012 1033.11 24.5147C1036.55 22.2657 1040.77 21.1412 1045.76 21.1412Z" fill="white"/>
<path d="M1081.48 88.9856C1079.23 88.9856 1077.1 88.6107 1075.1 87.8611C1073.17 87.1114 1071.51 86.0181 1070.14 84.5813L1072.48 81.0204C1073.73 82.3323 1075.07 83.3006 1076.51 83.9253C1078.01 84.5501 1079.69 84.8624 1081.57 84.8624C1083.82 84.8624 1085.79 84.2377 1087.47 82.9883C1089.22 81.7388 1090.85 79.4586 1092.35 76.1476L1095.72 68.651L1096.37 67.8076L1117.08 21.5161H1121.86L1096.75 77.0847C1095.44 80.0833 1094 82.426 1092.44 84.1128C1090.94 85.862 1089.28 87.1114 1087.47 87.8611C1085.66 88.6107 1083.66 88.9856 1081.48 88.9856ZM1095.63 71.6497L1072.95 21.5161H1077.91L1098.53 67.5265L1095.63 71.6497Z" fill="white"/>
</svg>
