<svg width="133" height="17" viewBox="0 0 133 17" fill="none" xmlns="http://www.w3.org/2000/svg">
<path d="M13.6719 10.1641V17H10.7422V10.1641C10.7422 9.08333 10.3613 8.16211 9.59961 7.40039C8.83789 6.63867 7.91667 6.25781 6.83594 6.25781C5.75521 6.25781 4.83398 6.63867 4.07227 7.40039C3.31055 8.16211 2.92969 9.08333 2.92969 10.1641V17H0V0H2.92969V4.53906C4.0625 3.73177 5.36458 3.32812 6.83594 3.32812C8.72396 3.32812 10.3353 3.99544 11.6699 5.33007C13.0046 6.66471 13.6719 8.27604 13.6719 10.1641Z" fill="white"/>
<path d="M22.2844 14.0703C23.3651 14.0703 24.2863 13.6894 25.048 12.9277C25.8098 12.166 26.1906 11.2448 26.1906 10.1641C26.1906 9.08333 25.8098 8.16211 25.048 7.40039C24.2863 6.63867 23.3651 6.25781 22.2844 6.25781C21.2036 6.25781 20.2824 6.63867 19.5207 7.40039C18.759 8.16211 18.3781 9.08333 18.3781 10.1641C18.3781 11.2448 18.759 12.166 19.5207 12.9277C20.2824 13.6894 21.2036 14.0703 22.2844 14.0703ZM29.1203 17H26.1906V15.7891C25.0578 16.5964 23.7557 17 22.2844 17C20.3964 17 18.785 16.3327 17.4504 14.998C16.1158 13.6634 15.4484 12.0521 15.4484 10.1641C15.4484 8.27604 16.1158 6.66471 17.4504 5.33007C18.785 3.99544 20.3964 3.32812 22.2844 3.32812C24.1724 3.32812 25.7837 3.99544 27.1184 5.33007C28.453 6.66471 29.1203 8.27604 29.1203 10.1641V17Z" fill="white"/>
<path d="M33.8266 10.1641V17H30.8969V10.1641C30.8969 8.27604 31.5642 6.66471 32.8988 5.33007C34.2335 3.99544 35.8448 3.32812 37.7328 3.32812C39.6208 3.32812 41.2322 3.99544 42.5668 5.33007C43.9014 6.66471 44.5687 8.27604 44.5687 10.1641V17H41.6391V10.1641C41.6391 9.08333 41.2582 8.16211 40.4965 7.40039C39.7348 6.63867 38.8135 6.25781 37.7328 6.25781C36.6521 6.25781 35.7309 6.63867 34.9691 7.40039C34.2074 8.16211 33.8266 9.08333 33.8266 10.1641Z" fill="white"/>
<path d="M53.1813 6.25781C52.1005 6.25781 51.1793 6.63867 50.4176 7.40039C49.6559 8.16211 49.275 9.08333 49.275 10.1641C49.275 11.2448 49.6559 12.166 50.4176 12.9277C51.1793 13.6894 52.1005 14.0703 53.1813 14.0703C54.262 14.0703 55.1832 13.6894 55.9449 12.9277C56.7066 12.166 57.0875 11.2448 57.0875 10.1641C57.0875 9.08333 56.7066 8.16211 55.9449 7.40039C55.1832 6.63867 54.262 6.25781 53.1813 6.25781ZM60.0172 10.1641C60.0172 12.0521 59.3499 13.6634 58.0152 14.998C56.6806 16.3327 55.0693 17 53.1813 17C51.2932 17 49.6819 16.3327 48.3473 14.998C47.0126 13.6634 46.3453 12.0521 46.3453 10.1641C46.3453 8.27604 47.0126 6.66471 48.3473 5.33007C49.6819 3.99544 51.2932 3.32812 53.1813 3.32812C54.6526 3.32812 55.9547 3.73177 57.0875 4.53906V0H60.0172V10.1641Z" fill="white"/>
<path d="M64.7234 10.1641V17H61.7938V10.1641C61.7938 8.27604 62.4611 6.66471 63.7957 5.33007C65.1303 3.99544 66.7417 3.32812 68.6297 3.32812C70.5177 3.32812 72.129 3.99544 73.4637 5.33007C73.659 5.52539 73.838 5.72396 74.0008 5.92578C74.1635 5.72396 74.3426 5.52539 74.5379 5.33007C75.8725 3.99544 77.4838 3.32812 79.3719 3.32812C81.2599 3.32812 82.8712 3.99544 84.2059 5.33007C85.5405 6.66471 86.2078 8.27604 86.2078 10.1641V17H83.2781V10.1641C83.2781 9.08333 82.8973 8.16211 82.1355 7.40039C81.3738 6.63867 80.4526 6.25781 79.3719 6.25781C78.2911 6.25781 77.3699 6.63867 76.6082 7.40039C75.8465 8.16211 75.4656 9.08333 75.4656 10.1641V17H72.5359V10.1641C72.5359 9.08333 72.1551 8.16211 71.3934 7.40039C70.6316 6.63867 69.7104 6.25781 68.6297 6.25781C67.549 6.25781 66.6277 6.63867 65.866 7.40039C65.1043 8.16211 64.7234 9.08333 64.7234 10.1641Z" fill="white"/>
<path d="M94.8203 14.0703C95.901 14.0703 96.8223 13.6894 97.584 12.9277C98.3457 12.166 98.7266 11.2448 98.7266 10.1641C98.7266 9.08333 98.3457 8.16211 97.584 7.40039C96.8223 6.63867 95.901 6.25781 94.8203 6.25781C93.7396 6.25781 92.8184 6.63867 92.0566 7.40039C91.2949 8.16211 90.9141 9.08333 90.9141 10.1641C90.9141 11.2448 91.2949 12.166 92.0566 12.9277C92.8184 13.6894 93.7396 14.0703 94.8203 14.0703ZM101.656 17H98.7266V15.7891C97.5938 16.5964 96.2917 17 94.8203 17C92.9323 17 91.321 16.3327 89.9863 14.998C88.6517 13.6634 87.9844 12.0521 87.9844 10.1641C87.9844 8.27604 88.6517 6.66471 89.9863 5.33007C91.321 3.99544 92.9323 3.32812 94.8203 3.32812C96.7083 3.32812 98.3197 3.99544 99.6543 5.33007C100.989 6.66471 101.656 8.27604 101.656 10.1641V17Z" fill="white"/>
<path d="M110.269 6.25781C109.188 6.25781 108.267 6.63867 107.505 7.40039C106.743 8.16211 106.363 9.08333 106.363 10.1641C106.363 11.2448 106.743 12.166 107.505 12.9277C108.267 13.6894 109.188 14.0703 110.269 14.0703C111.349 14.0703 112.271 13.6894 113.032 12.9277C113.794 12.166 114.175 11.2448 114.175 10.1641C114.175 9.08333 113.794 8.16211 113.032 7.40039C112.271 6.63867 111.349 6.25781 110.269 6.25781ZM117.105 10.1641C117.105 12.0521 116.437 13.6634 115.103 14.998C113.768 16.3327 112.157 17 110.269 17C108.381 17 106.769 16.3327 105.435 14.998C104.1 13.6634 103.433 12.0521 103.433 10.1641C103.433 8.27604 104.1 6.66471 105.435 5.33007C106.769 3.99544 108.381 3.32812 110.269 3.32812C111.74 3.32812 113.042 3.73177 114.175 4.53906V0H117.105V10.1641Z" fill="white"/>
<path d="M129.35 8.69921C129.161 8.22395 128.871 7.79101 128.481 7.40039C127.719 6.63867 126.798 6.25781 125.717 6.25781C124.636 6.25781 123.715 6.63867 122.954 7.40039C122.563 7.79101 122.273 8.22395 122.084 8.69921H129.35ZM128.774 12.6055H132.123C131.791 13.4844 131.267 14.2819 130.551 14.998C129.217 16.3327 127.605 17 125.717 17C123.829 17 122.218 16.3327 120.883 14.998C119.549 13.6634 118.881 12.0521 118.881 10.1641C118.881 8.27604 119.549 6.66471 120.883 5.33007C122.218 3.99544 123.829 3.32812 125.717 3.32812C127.605 3.32812 129.217 3.99544 130.551 5.33007C131.886 6.66471 132.553 8.27604 132.553 10.1641C132.553 10.6719 132.504 11.1602 132.407 11.6289H122.084C122.273 12.1042 122.563 12.5371 122.954 12.9277C123.715 13.6894 124.636 14.0703 125.717 14.0703C126.798 14.0703 127.719 13.6894 128.481 12.9277C128.585 12.8236 128.683 12.7161 128.774 12.6055Z" fill="white"/>
</svg>
