<svg width="107" height="14" viewBox="0 0 107 14" fill="none" xmlns="http://www.w3.org/2000/svg">
<path d="M11.0363 8.20467V13.7228H8.67135V8.20467C8.67135 7.33228 8.36391 6.58864 7.74903 5.97377C7.13415 5.35889 6.39052 5.05145 5.51813 5.05145C4.64574 5.05145 3.90211 5.35889 3.28723 5.97377C2.67235 6.58864 2.36491 7.33228 2.36491 8.20467V13.7228H0V0H2.36491V3.66403C3.27935 3.01237 4.33042 2.68654 5.51813 2.68654C7.04218 2.68654 8.34289 3.22521 9.42024 4.30256C10.4976 5.37991 11.0363 6.68061 11.0363 8.20467Z" fill="black"/>
<path d="M17.9885 11.3579C18.8609 11.3579 19.6045 11.0504 20.2194 10.4356C20.8342 9.82069 21.1417 9.07706 21.1417 8.20467C21.1417 7.33228 20.8342 6.58864 20.2194 5.97377C19.6045 5.35889 18.8609 5.05145 17.9885 5.05145C17.1161 5.05145 16.3724 5.35889 15.7576 5.97377C15.1427 6.58864 14.8353 7.33228 14.8353 8.20467C14.8353 9.07706 15.1427 9.82069 15.7576 10.4356C16.3724 11.0504 17.1161 11.3579 17.9885 11.3579ZM23.5066 13.7228H21.1417V12.7453C20.2273 13.397 19.1762 13.7228 17.9885 13.7228C16.4644 13.7228 15.1637 13.1841 14.0864 12.1068C13.009 11.0294 12.4703 9.72872 12.4703 8.20467C12.4703 6.68061 13.009 5.37991 14.0864 4.30256C15.1637 3.22521 16.4644 2.68654 17.9885 2.68654C19.5125 2.68654 20.8132 3.22521 21.8906 4.30256C22.9679 5.37991 23.5066 6.68061 23.5066 8.20467V13.7228Z" fill="black"/>
<path d="M27.3056 8.20467V13.7228H24.9407V8.20467C24.9407 6.68061 25.4794 5.37991 26.5567 4.30256C27.6341 3.22521 28.9348 2.68654 30.4588 2.68654C31.9829 2.68654 33.2836 3.22521 34.3609 4.30256C35.4383 5.37991 35.9769 6.68061 35.9769 8.20467V13.7228H33.612V8.20467C33.612 7.33228 33.3046 6.58864 32.6897 5.97377C32.0748 5.35889 31.3312 5.05145 30.4588 5.05145C29.5864 5.05145 28.8428 5.35889 28.2279 5.97377C27.613 6.58864 27.3056 7.33228 27.3056 8.20467Z" fill="black"/>
<path d="M42.9292 5.05145C42.0568 5.05145 41.3131 5.35889 40.6983 5.97377C40.0834 6.58864 39.7759 7.33228 39.7759 8.20467C39.7759 9.07706 40.0834 9.82069 40.6983 10.4356C41.3131 11.0504 42.0568 11.3579 42.9292 11.3579C43.8015 11.3579 44.5452 11.0504 45.1601 10.4356C45.7749 9.82069 46.0824 9.07706 46.0824 8.20467C46.0824 7.33228 45.7749 6.58864 45.1601 5.97377C44.5452 5.35889 43.8015 5.05145 42.9292 5.05145ZM48.4473 8.20467C48.4473 9.72872 47.9086 11.0294 46.8313 12.1068C45.7539 13.1841 44.4532 13.7228 42.9292 13.7228C41.4051 13.7228 40.1044 13.1841 39.0271 12.1068C37.9497 11.0294 37.411 9.72872 37.411 8.20467C37.411 6.68061 37.9497 5.37991 39.0271 4.30256C40.1044 3.22521 41.4051 2.68654 42.9292 2.68654C44.1169 2.68654 45.1679 3.01237 46.0824 3.66403V0H48.4473V8.20467Z" fill="black"/>
<path d="M52.2463 8.20467V13.7228H49.8814V8.20467C49.8814 6.68061 50.42 5.37991 51.4974 4.30256C52.5747 3.22521 53.8754 2.68654 55.3995 2.68654C56.9235 2.68654 58.2243 3.22521 59.3016 4.30256C59.4593 4.46022 59.6038 4.62051 59.7352 4.78343C59.8666 4.62051 60.0111 4.46022 60.1687 4.30256C61.2461 3.22521 62.5468 2.68654 64.0708 2.68654C65.5949 2.68654 66.8956 3.22521 67.9729 4.30256C69.0503 5.37991 69.589 6.68061 69.589 8.20467V13.7228H67.2241V8.20467C67.2241 7.33228 66.9166 6.58864 66.3017 5.97377C65.6869 5.35889 64.9432 5.05145 64.0708 5.05145C63.1985 5.05145 62.4548 5.35889 61.8399 5.97377C61.2251 6.58864 60.9176 7.33228 60.9176 8.20467V13.7228H58.5527V8.20467C58.5527 7.33228 58.2453 6.58864 57.6304 5.97377C57.0155 5.35889 56.2719 5.05145 55.3995 5.05145C54.5271 5.05145 53.7835 5.35889 53.1686 5.97377C52.5537 6.58864 52.2463 7.33228 52.2463 8.20467Z" fill="black"/>
<path d="M76.5412 11.3579C77.4136 11.3579 78.1572 11.0504 78.7721 10.4356C79.387 9.82069 79.6944 9.07706 79.6944 8.20467C79.6944 7.33228 79.387 6.58864 78.7721 5.97377C78.1572 5.35889 77.4136 5.05145 76.5412 5.05145C75.6688 5.05145 74.9252 5.35889 74.3103 5.97377C73.6954 6.58864 73.388 7.33228 73.388 8.20467C73.388 9.07706 73.6954 9.82069 74.3103 10.4356C74.9252 11.0504 75.6688 11.3579 76.5412 11.3579ZM82.0593 13.7228H79.6944V12.7453C78.78 13.397 77.7289 13.7228 76.5412 13.7228C75.0171 13.7228 73.7164 13.1841 72.6391 12.1068C71.5617 11.0294 71.0231 9.72872 71.0231 8.20467C71.0231 6.68061 71.5617 5.37991 72.6391 4.30256C73.7164 3.22521 75.0171 2.68654 76.5412 2.68654C78.0652 2.68654 79.3659 3.22521 80.4433 4.30256C81.5206 5.37991 82.0593 6.68061 82.0593 8.20467V13.7228Z" fill="black"/>
<path d="M89.0115 5.05145C88.1391 5.05145 87.3955 5.35889 86.7806 5.97377C86.1657 6.58864 85.8583 7.33228 85.8583 8.20467C85.8583 9.07706 86.1657 9.82069 86.7806 10.4356C87.3955 11.0504 88.1391 11.3579 89.0115 11.3579C89.8839 11.3579 90.6276 11.0504 91.2424 10.4356C91.8573 9.82069 92.1647 9.07706 92.1647 8.20467C92.1647 7.33228 91.8573 6.58864 91.2424 5.97377C90.6276 5.35889 89.8839 5.05145 89.0115 5.05145ZM94.5297 8.20467C94.5297 9.72872 93.991 11.0294 92.9136 12.1068C91.8363 13.1841 90.5356 13.7228 89.0115 13.7228C87.4875 13.7228 86.1868 13.1841 85.1094 12.1068C84.0321 11.0294 83.4934 9.72872 83.4934 8.20467C83.4934 6.68061 84.0321 5.37991 85.1094 4.30256C86.1868 3.22521 87.4875 2.68654 89.0115 2.68654C90.1992 2.68654 91.2503 3.01237 92.1647 3.66403V0H94.5297V8.20467Z" fill="black"/>
<path d="M104.414 7.02221C104.262 6.63857 104.028 6.28909 103.713 5.97377C103.098 5.35889 102.354 5.05145 101.482 5.05145C100.609 5.05145 99.8658 5.35889 99.251 5.97377C98.9356 6.28909 98.7018 6.63857 98.5494 7.02221H104.414ZM103.949 10.1754H106.653C106.385 10.8849 105.962 11.5287 105.384 12.1068C104.307 13.1841 103.006 13.7228 101.482 13.7228C99.9578 13.7228 98.6571 13.1841 97.5798 12.1068C96.5024 11.0294 95.9637 9.72872 95.9637 8.20467C95.9637 6.68061 96.5024 5.37991 97.5798 4.30256C98.6571 3.22521 99.9578 2.68654 101.482 2.68654C103.006 2.68654 104.307 3.22521 105.384 4.30256C106.461 5.37991 107 6.68061 107 8.20467C107 8.61458 106.961 9.00874 106.882 9.38712H98.5494C98.7018 9.77076 98.9356 10.1202 99.251 10.4356C99.8658 11.0504 100.609 11.3579 101.482 11.3579C102.354 11.3579 103.098 11.0504 103.713 10.4356C103.797 10.3515 103.876 10.2648 103.949 10.1754Z" fill="black"/>
</svg>
