<svg width="85" height="12" viewBox="0 0 85 12" fill="none" xmlns="http://www.w3.org/2000/svg">
<path d="M11.1708 4.23235C11.0975 3.99569 10.8963 3.82761 10.6583 3.80523L7.42571 3.49894L6.14745 0.376912C6.05319 0.148108 5.83854 0 5.60005 0C5.36155 0 5.1469 0.148108 5.05264 0.377447L3.77438 3.49894L0.541247 3.80523C0.303692 3.82815 0.103053 3.99569 0.0293084 4.23235C-0.0444361 4.469 0.0236686 4.72856 0.203373 4.89219L2.64685 7.12833L1.92633 10.4403C1.8736 10.6838 1.96418 10.9355 2.15781 11.0816C2.26189 11.1601 2.38366 11.2 2.50645 11.2C2.61233 11.2 2.71735 11.1702 2.8116 11.1114L5.60005 9.37233L8.38746 11.1114C8.59144 11.2394 8.84856 11.2277 9.04176 11.0816C9.23548 10.9351 9.32597 10.6833 9.27325 10.4403L8.55273 7.12833L10.9962 4.89263C11.1759 4.72856 11.2445 4.46944 11.1708 4.23235Z" fill="#FF3D2E"/>
<path d="M29.5692 4.23235C29.4959 3.99569 29.2948 3.82761 29.0568 3.80523L25.8241 3.49894L24.5459 0.376912C24.4516 0.148108 24.237 0 23.9985 0C23.76 0 23.5453 0.148108 23.4511 0.377447L22.1728 3.49894L18.9397 3.80523C18.7021 3.82815 18.5015 3.99569 18.4277 4.23235C18.354 4.469 18.4221 4.72856 18.6018 4.89219L21.0453 7.12833L20.3248 10.4403C20.272 10.6838 20.3626 10.9355 20.5563 11.0816C20.6603 11.1601 20.7821 11.2 20.9049 11.2C21.0108 11.2 21.1158 11.1702 21.21 11.1114L23.9985 9.37233L26.7859 11.1114C26.9899 11.2394 27.247 11.2277 27.4402 11.0816C27.6339 10.9351 27.7244 10.6833 27.6717 10.4403L26.9512 7.12833L29.3946 4.89263C29.5743 4.72856 29.643 4.46944 29.5692 4.23235Z" fill="#FF3D2E"/>
<path d="M47.9716 4.23235C47.8982 3.99569 47.6971 3.82761 47.4591 3.80523L44.2265 3.49894L42.9482 0.376912C42.854 0.148108 42.6393 0 42.4008 0C42.1623 0 41.9477 0.148108 41.8534 0.377447L40.5752 3.49894L37.342 3.80523C37.1045 3.82815 36.9038 3.99569 36.8301 4.23235C36.7563 4.469 36.8244 4.72856 37.0042 4.89219L39.4476 7.12833L38.7271 10.4403C38.6744 10.6838 38.765 10.9355 38.9586 11.0816C39.0627 11.1601 39.1844 11.2 39.3072 11.2C39.4131 11.2 39.5181 11.1702 39.6124 11.1114L42.4008 9.37233L45.1882 11.1114C45.3922 11.2394 45.6493 11.2277 45.8425 11.0816C46.0363 10.9351 46.1268 10.6833 46.074 10.4403L45.3535 7.12833L47.797 4.89263C47.9767 4.72856 48.0453 4.46944 47.9716 4.23235Z" fill="#FF3D2E"/>
<path d="M66.37 4.23235C66.2967 3.99569 66.0955 3.82761 65.8575 3.80523L62.6249 3.49894L61.3467 0.376912C61.2524 0.148108 61.0378 0 60.7993 0C60.5608 0 60.3461 0.148108 60.2519 0.377447L58.9736 3.49894L55.7405 3.80523C55.5029 3.82815 55.3023 3.99569 55.2285 4.23235C55.1548 4.469 55.2229 4.72856 55.4026 4.89219L57.8461 7.12833L57.1255 10.4403C57.0728 10.6838 57.1634 10.9355 57.357 11.0816C57.4611 11.1601 57.5829 11.2 57.7057 11.2C57.8115 11.2 57.9166 11.1702 58.0108 11.1114L60.7993 9.37233L63.5867 11.1114C63.7907 11.2394 64.0478 11.2277 64.241 11.0816C64.4347 10.9351 64.5252 10.6833 64.4725 10.4403L63.7519 7.12833L66.1954 4.89263C66.3751 4.72856 66.4437 4.46944 66.37 4.23235Z" fill="#FF3D2E"/>
<path d="M84.7723 4.23235C84.699 3.99569 84.4979 3.82761 84.2599 3.80523L81.0273 3.49894L79.749 0.376912C79.6548 0.148108 79.4401 0 79.2016 0C78.9631 0 78.7485 0.148108 78.6542 0.377447L77.3759 3.49894L74.1428 3.80523C73.9053 3.82815 73.7046 3.99569 73.6309 4.23235C73.5571 4.469 73.6252 4.72856 73.8049 4.89219L76.2484 7.12833L75.5279 10.4403C75.4752 10.6838 75.5657 10.9355 75.7594 11.0816C75.8635 11.1601 75.9852 11.2 76.108 11.2C76.2139 11.2 76.3189 11.1702 76.4132 11.1114L79.2016 9.37233L81.989 11.1114C82.193 11.2394 82.4501 11.2277 82.6433 11.0816C82.837 10.9351 82.9275 10.6833 82.8748 10.4403L82.1543 7.12833L84.5978 4.89263C84.7775 4.72856 84.8461 4.46944 84.7723 4.23235Z" fill="#FF3D2E"/>
</svg>
