<?xml version="1.0" standalone="no"?>
<!DOCTYPE svg PUBLIC "-//W3C//DTD SVG 20010904//EN"
 "http://www.w3.org/TR/2001/REC-SVG-20010904/DTD/svg10.dtd">
<svg version="1.0" xmlns="http://www.w3.org/2000/svg"
 width="1429.000000pt" height="1429.000000pt" viewBox="0 0 1429.000000 1429.000000"
 preserveAspectRatio="xMidYMid meet">
<metadata>
Created by potrace 1.11, written by Peter Selinger 2001-2013
</metadata>
<g transform="translate(0.000000,1429.000000) scale(0.100000,-0.100000)"
fill="#000000" stroke="none">
<path d="M2073 13363 c-507 -511 -924 -931 -927 -934 -3 -3 58 -71 137 -151
487 -496 739 -830 933 -1235 157 -328 268 -716 308 -1078 3 -27 9 -84 13 -125
17 -156 9 -750 -12 -915 -2 -16 -6 -55 -10 -85 -5 -57 -23 -196 -30 -240 -25
-158 -36 -229 -40 -250 -20 -119 -86 -500 -90 -520 -9 -49 -74 -446 -80 -485
-3 -23 -7 -50 -9 -62 -3 -12 -7 -43 -11 -70 -4 -26 -8 -59 -10 -73 -2 -14 -6
-45 -10 -70 -3 -25 -10 -76 -15 -115 -6 -38 -12 -92 -15 -120 -2 -27 -9 -95
-15 -150 -29 -276 -35 -406 -35 -715 0 -282 5 -379 30 -605 16 -138 17 -147
42 -295 204 -1246 813 -2232 1825 -2958 280 -200 643 -410 963 -555 811 -369
1265 -657 1666 -1057 193 -192 257 -266 389 -442 23 -32 44 -58 45 -58 2 0 26
31 54 70 130 179 387 456 557 601 86 74 96 82 204 165 323 248 692 458 1235
701 558 250 986 514 1375 848 842 723 1355 1712 1495 2880 9 72 18 144 20 160
26 184 26 861 0 1110 -2 22 -6 78 -10 125 -3 47 -8 103 -10 125 -6 55 -26 243
-30 281 -1 17 -6 56 -9 85 -4 30 -9 70 -11 89 -4 29 -15 105 -60 420 -5 31
-73 426 -80 460 -9 47 -14 75 -54 285 -77 407 -86 502 -86 885 0 233 8 424 20
470 2 8 6 42 10 75 3 33 8 69 10 80 3 11 7 36 9 55 10 69 57 287 87 400 16 63
31 122 33 130 2 8 23 71 46 140 156 465 375 877 656 1233 115 145 367 398 482
482 44 33 81 62 82 65 0 4 -1817 1824 -1865 1868 -2 2 -46 -27 -97 -65 -426
-316 -877 -542 -1298 -652 -158 -40 -223 -53 -395 -75 -109 -15 -454 -18 -550
-6 -33 4 -85 11 -115 15 -511 64 -1070 314 -1608 718 l-93 70 -47 -44 c-25
-24 -49 -47 -52 -50 -30 -32 -215 -171 -335 -251 -161 -107 -423 -242 -590
-304 -344 -127 -647 -181 -1010 -182 -233 0 -312 7 -580 54 -16 2 -82 18 -145
35 -446 117 -845 321 -1230 630 -63 51 -116 96 -118 101 -2 4 -7 8 -11 8 -4 0
-422 -417 -928 -927z"/>
</g>
</svg>
