<svg width="115" height="134" viewBox="0 0 115 134" fill="none" xmlns="http://www.w3.org/2000/svg">
<path d="M14.3235 100C14.3235 86.8678 16.9101 73.8642 21.9355 61.7317C26.961 49.5991 34.3269 38.5752 43.6128 29.2893C52.8987 20.0035 63.9226 12.6375 76.0551 7.61204C88.1877 2.58657 101.191 -9.91452e-07 114.323 0L114.323 10C102.505 10 90.8013 12.3279 79.882 16.8508C68.9627 21.3738 59.0411 28.0031 50.6839 36.3604C42.3266 44.7177 35.6973 54.6392 31.1743 65.5585C26.6514 76.4778 24.3235 88.181 24.3235 100L14.3235 100Z" fill="#D3D8DE"/>
<path d="M21.0555 133C20.2857 134.333 18.3612 134.333 17.5914 133L0.270921 103C-0.498877 101.667 0.463365 100 2.00297 100L36.644 100C38.1836 100 39.1458 101.667 38.376 103L21.0555 133Z" fill="#D3D8DE"/>
</svg>
