<svg width="134" height="115" viewBox="0 0 134 115" fill="none" xmlns="http://www.w3.org/2000/svg">
<path d="M100 100C86.8678 100 73.8642 97.4134 61.7317 92.388C49.5991 87.3625 38.5752 79.9965 29.2893 70.7107C20.0035 61.4248 12.6375 50.4009 7.61204 38.2683C2.58657 26.1358 -1.14805e-06 13.1322 0 0L10 8.74228e-07C10 11.819 12.3279 23.5222 16.8508 34.4415C21.3738 45.3608 28.0031 55.2823 36.3604 63.6396C44.7177 71.9969 54.6392 78.6262 65.5585 83.1492C76.4778 87.6721 88.181 90 100 90V100Z" fill="#D3D8DE"/>
<path d="M133 93.268C134.333 94.0378 134.333 95.9623 133 96.7321L103 114.053C101.667 114.822 100 113.86 100 112.321V77.6795C100 76.1399 101.667 75.1777 103 75.9475L133 93.268Z" fill="#D3D8DE"/>
</svg>
