<svg width="39" height="33" viewBox="0 0 39 33" fill="none" xmlns="http://www.w3.org/2000/svg">
<path d="M7.26563 20.8321C7.26563 22.726 7.67188 24.099 8.48438 24.9512C9.32813 25.7719 10.5 26.1822 12 26.1822C13.5 26.1822 14.6563 25.6772 15.4688 24.6671C16.3125 23.6255 16.7344 22.2525 16.7344 20.5481V0H24V20.5481C24 22.4103 23.7344 24.1148 23.2031 25.6614C22.7031 27.1765 21.9375 28.4864 20.9062 29.5911C19.9062 30.6643 18.6562 31.5007 17.1562 32.1004C15.6875 32.7001 13.9844 33 12.0469 33C10.1719 33 8.48438 32.7317 6.98438 32.1951C5.51562 31.6585 4.25 30.8694 3.1875 29.8278C2.15625 28.7862 1.35938 27.5237 0.796875 26.0402C0.265625 24.5251 0 22.7891 0 20.8321H7.26563Z" fill="url(#paint0_linear)"/>
<path d="M17 0H28.3005C29.8233 0 31.1457 0.197081 32.2678 0.591243C33.3898 0.985403 34.3115 1.52409 35.0328 2.2073C35.7541 2.86423 36.2884 3.63942 36.6357 4.53285C36.983 5.4 37.1566 6.33285 37.1566 7.33139C37.1566 8.54015 36.8628 9.61752 36.275 10.5635C35.714 11.4832 34.8591 12.2321 33.7104 12.8102C35.4469 13.3358 36.7559 14.1504 37.6375 15.254C38.5458 16.3577 39 17.6978 39 19.2745C39 20.3781 38.7996 21.4029 38.3989 22.3489C37.9982 23.2949 37.3971 24.1095 36.5956 24.7927C35.7942 25.4759 34.7924 26.0146 33.5902 26.4088C32.388 26.8029 30.9721 27 29.3424 27H17V0ZM23.2113 5.24234V10.7606H27.8597C28.9284 10.7606 29.7298 10.4978 30.2641 9.97226C30.7984 9.44671 31.0656 8.77664 31.0656 7.96204C31.0656 7.17372 30.7984 6.52993 30.2641 6.03066C29.7298 5.50511 28.9284 5.24234 27.8597 5.24234H23.2113ZM23.2113 15.9241V21.7577H29.0219C30.224 21.7577 31.1457 21.4949 31.7869 20.9693C32.4548 20.4438 32.7887 19.7606 32.7887 18.9197C32.7887 18.0263 32.4548 17.3036 31.7869 16.7518C31.1457 16.2 30.2107 15.9241 28.9818 15.9241H23.2113Z" fill="url(#paint1_linear)"/>
<defs>
<linearGradient id="paint0_linear" x1="39" y1="16" x2="2.58679e-08" y2="16" gradientUnits="userSpaceOnUse">
<stop stop-color="#29508A"/>
<stop offset="1" stop-color="#016FD0"/>
</linearGradient>
<linearGradient id="paint1_linear" x1="39" y1="16" x2="2.58679e-08" y2="16" gradientUnits="userSpaceOnUse">
<stop stop-color="#29508A"/>
<stop offset="1" stop-color="#016FD0"/>
</linearGradient>
</defs>
</svg>
