<svg width="16" height="32" viewBox="0 0 16 32" fill="none" xmlns="http://www.w3.org/2000/svg">
<path d="M8 0C3.58159 0 0 3.60421 0 8.05053V15.6968C0 18.9979 2.00837 21.8611 4.85356 23.1074V20.5137C3.31381 19.4695 2.27615 17.7179 2.27615 15.6968V8.05053C2.27615 4.88421 4.85356 2.29053 8 2.29053C11.1799 2.29053 13.7238 4.88421 13.7238 8.05053V15.6968C13.7238 17.7179 12.6862 19.4695 11.1464 20.5137V23.1074C13.9916 21.8611 16 19.0316 16 15.6968V8.05053C16 3.60421 12.4184 0 8 0Z" fill="url(#paint0_linear)"/>
<path d="M8.00001 10.1726C8.636 10.1726 9.13809 9.66737 9.13809 9.02737V5.92843C9.13809 5.28843 8.636 4.78316 8.00001 4.78316C7.36403 4.78316 6.86194 5.28843 6.86194 5.92843V9.02737C6.86194 9.63369 7.36403 10.1726 8.00001 10.1726Z" fill="url(#paint1_linear)"/>
<path d="M11.046 26.2063L9.13809 28.1263V18.0547C9.13809 17.4147 8.636 16.9095 8.00002 16.9095C7.36403 16.9095 6.86194 17.4147 6.86194 18.0547V28.0926L4.95399 26.1726C4.51884 25.7347 3.78244 25.7347 3.34729 26.1726C2.91215 26.6105 2.91215 27.3516 3.34729 27.7895L7.19667 31.6632C7.43098 31.8989 7.69876 32 8.00002 32C8.30127 32 8.56905 31.8989 8.80336 31.6632L12.6527 27.7895C13.0879 27.3516 13.0879 26.6105 12.6527 26.1726C12.1841 25.7347 11.4812 25.7347 11.046 26.2063Z" fill="url(#paint2_linear)"/>
<defs>
<linearGradient id="paint0_linear" x1="8" y1="0" x2="8" y2="32" gradientUnits="userSpaceOnUse">
<stop stop-color="#0742A6"/>
<stop offset="1" stop-color="#3A73C5"/>
</linearGradient>
<linearGradient id="paint1_linear" x1="8" y1="0" x2="8" y2="32" gradientUnits="userSpaceOnUse">
<stop stop-color="#0742A6"/>
<stop offset="1" stop-color="#3A73C5"/>
</linearGradient>
<linearGradient id="paint2_linear" x1="8" y1="0" x2="8" y2="32" gradientUnits="userSpaceOnUse">
<stop stop-color="#0742A6"/>
<stop offset="1" stop-color="#3A73C5"/>
</linearGradient>
</defs>
</svg>
